# xmcd
#
# Track frame offsets:
#	150
#	16847
#	31952
#	51216
#	71373
#	106531
#	126909
#	146509
#	181593
#
# Disc length: 2720 seconds
# Revision: 0
# Processed by: cddbd v1.5.2PL0 Copyright (c) Steve Scherf et al.
# Submitted via: dBpowerAMP V12.0
#
DISCID=690a9e09
DTITLE=Reverend John Wilkins - You Can't Hurry God
DYEAR=2010
DGENRE=Gospel
TTITLE0=You Can't Hurry God
TTITLE1=Jesus Will Fix It
TTITLE2=Sinner's Prayer
TTITLE3=Let The Redeemed Say So
TTITLE4=Prodigal Son
TTITLE5=You Got To Move
TTITLE6=I Want You To Help Me
TTITLE7=Thank You Sir
TTITLE8=On The Battlefield
EXTD=
EXTT0=
EXTT1=
EXTT2=
EXTT3=
EXTT4=
EXTT5=
EXTT6=
EXTT7=
EXTT8=
PLAYORDER=
